<?xml version="1.0" encoding="utf-8"?>
<!-- Generator: Adobe Illustrator 25.2.0, SVG Export Plug-In . SVG Version: 6.00 Build 0)  -->
<svg version="1.1" id="Layer_1" xmlns="http://www.w3.org/2000/svg" xmlns:xlink="http://www.w3.org/1999/xlink" x="0px" y="0px"
	 viewBox="0 0 224.98 79.17" style="enable-background:new 0 0 224.98 79.17;" xml:space="preserve">
<style type="text/css">
	.st0{fill:#030303;}
	.st1{fill:#5044E4;}
	.st2{fill:#6A5FE8;}
	.st3{fill:#FEFEFE;}
</style>
<path class="st0" d="M83.21,44.94c0-9.3,0.2-18.6-0.1-27.89c-0.13-3.96,1.19-4.91,4.94-4.79c8.38,0.27,16.78-0.11,25.17,0.13
	c9.34,0.27,17.38,8.15,18.03,18.16c1.05,16.23-10.06,23.74-23.11,22.84c-9.89-0.68-9.93-0.14-9.93,9.67c0,2.04,0,4.08,0,6.12
	c0,8.64-0.01,8.35-8.39,8.73c-5.05,0.23-7.1-0.84-6.75-6.46C83.61,62.66,83.21,53.79,83.21,44.94z"/>
<path class="st0" d="M158.23,54.8c0-5.67,0.18-11.35-0.07-17.01c-0.16-3.54,0.42-5.51,4.63-5.06c4.06,0.44,8.18,1.07,12.1,1.39
	c3.72,0.31,7.93-1.56,12.29-1.5c8.34,0.12,14.5,8.74,14.65,16.45c0.16,8.16-0.21,16.34,0.14,24.5c0.17,3.95-1.5,4.3-4.72,4.32
	c-9.02,0.06-8.78,0.18-9.1-8.75c-0.24-6.67,1.04-13.35-1.07-20.06c-1.3-4.15-4.19-5.71-7.27-5.06c-3.14,0.67-6.79,2.36-6.65,7.14
	c0.21,7.03-0.18,14.07,0.14,21.09c0.2,4.23-0.73,5.86-5.43,5.71c-9.65-0.31-9.66,0-9.66-9.54C158.23,63.88,158.23,59.34,158.23,54.8
	z"/>
<path class="st1" d="M0,57.86c0-13.42,0-13.42,13.66-13.13C25.76,45,30.14,49.49,30.35,61.86c0.25,14.6,0.25,14.6-14.23,14.6
	C1.24,76.46,0,75.03,0,57.86z"/>
<path class="st0" d="M137.77,54.66c0-4.77,0.42-9.59-0.11-14.3c-0.69-6.14,1.32-8.01,7.59-7.78c5.01,0.18,6.49,1.2,6.29,6.36
	c-0.44,11.34-0.29,22.72-0.05,34.08c0.08,3.8-0.93,4.97-4.83,4.92c-8.88-0.11-8.89,0.12-8.89-8.95
	C137.77,64.2,137.77,59.43,137.77,54.66z"/>
<path class="st0" d="M151.49,17.91c-0.04,4.76-2.63,7.57-6.7,7.92c-4.85,0.41-8.04-2.88-8.21-7.49c-0.16-4.46,2.77-6.99,7.55-7.42
	C149.74,10.4,150.67,14.06,151.49,17.91z"/>
<path class="st2" d="M64.1,13.13c-0.28,1.8-1.43,2.96-3.13,2.88c-1.98-0.09-3.37-1.42-3.24-3.53c0.11-1.75,1.34-2.9,3.14-2.84
	C62.96,9.71,64.06,10.99,64.1,13.13z"/>
<path class="st3" d="M98.21,33.01c0-9.75,0-9.75,7.76-9.75c8.26,0,11.28,2.52,11.33,9.44c0.05,7.25-3.18,9.03-12.62,9.84
	C94.95,43.36,99.12,36.59,98.21,33.01z"/>
<path class="st1" d="M47.79,43.05c-8.56-2.76-14.03-7.88-14.95-17.23c-2.52,1.77-2.17,3.99-2.91,5.72
	c-2.53,5.92-6.64,9.64-13.4,9.71c-0.68,0.01-1.36,0.11-2.04,0.06C9.8,40.98,2.66,43.46,0.97,40.21c-2.49-4.77,1.33-11.02,4.21-15.71
	C11.78,13.74,22.05,8.68,34.56,9.8c12.34,1.1,21.58,7.12,26.46,19.22c5.25,13,2.68,26.44,2.73,39.69c0.02,4.33-3.73,7.14-8.29,7.66
	c-2.47,0.28-5.04,0.42-7.47,0.03c-4.68-0.77-12.39,2.81-13.49-1.8c-1.8-7.51-2.69-16.27,1.75-23.83
	C38.66,46.64,43.11,45.12,47.79,43.05z"/>
<path class="st0" d="M208.69,71.38c0.07-6.29,2.94-8.62,8.63-8.59c5.6,0.03,7.11,4.01,7.62,8.24c0.53,4.4-4.08,8.65-8.45,8.09
	C211.44,78.49,208.79,75.37,208.69,71.38z"/>
</svg>
